<?xml version="1.0" encoding="utf-8"?>
<!-- Generator: Adobe Illustrator 27.0.1, SVG Export Plug-In . SVG Version: 6.00 Build 0)  -->
<svg version="1.1" id="Layer_1" xmlns="http://www.w3.org/2000/svg" xmlns:xlink="http://www.w3.org/1999/xlink" x="0px" y="0px"
	 viewBox="0 0 842 699" style="enable-background:new 0 0 842 699;" xml:space="preserve">
<style type="text/css">
	.st0{opacity:0.3;fill:#CCD3DB;}
</style>
<path class="st0" d="M34.8,650.9c-10-3.2-19.7-5.7-19.7-13.3c0-6.4,5.9-10.7,14.5-10.7s15.6,5.1,17.5,13.9l11.8-3.3
	c-2.8-12.7-14.2-21.6-28.7-21.6c-15.9,0-27.6,9.9-27.6,22.4c0,13.9,12.3,18.4,21.4,21.6c11,3.8,23,5.8,23,15.8
	c0,6.8-5.8,12.2-15.7,12.2c-11.2,0-17.9-7.4-19.4-15.8L0,675.2c3.3,13.9,14.2,23.7,30.8,23.7s28.9-10,28.9-23.8
	C59.7,660.1,45.9,654.5,34.8,650.9 M157.9,641.9c-2,2.8-4.4,6.1-4.5,6.1h-0.1c0,0-2.5-3.3-4.5-6.1l-17.7-24.5h-13.8l30,42v38h12.2
	v-38l30-42h-13.9L157.9,641.9z M286.6,650.9c-10-3.2-19.7-5.7-19.7-13.3c0-6.4,5.9-10.7,14.5-10.7s15.6,5.1,17.5,13.9l11.8-3.3
	c-2.8-12.7-14.2-21.6-28.7-21.6c-15.9,0-27.6,9.9-27.6,22.4c0,13.9,12.3,18.4,21.4,21.6c11,3.8,23,5.8,23,15.8
	c0,6.8-5.8,12.2-15.7,12.2c-11.2,0-17.9-7.4-19.4-15.8l-11.8,3.3c3.3,13.9,14.2,23.7,30.8,23.7s28.9-10,28.9-23.8
	c0-15-13.8-20.5-24.9-24.2 M376.6,629.3h25v68.1h12.2v-68.1h25.3v-11.9h-62.4V629.3z M523.8,661.2h32.7V650h-32.7v-20.8h41.1v-11.9
	h-53.3v80h54.1v-11.9h-41.8V661.2L523.8,661.2z M687.6,648c-6.4,11-7.4,13.7-7.6,13.7H680c0,0-1.2-2.7-7.7-13.7l-17.7-30.6H643v80
	h12.2v-30.6c0-14.5-0.6-28.2-0.5-28.2c0.1,0,4.8,8.5,6.7,12.2l15.1,26.9h6.4l15.1-26.9c2-3.7,6.7-12.2,6.8-12.2h0.1
	c0,0-0.6,13.7-0.6,28.2v30.6h12v-80h-11.6L687.1,648H687.6z M816.9,650.9c-10-3.2-19.8-5.7-19.8-13.3c0-6.4,5.9-10.7,14.5-10.7
	c8.6,0,15.7,5.1,17.5,13.9l11.8-3.3c-2.8-12.7-14.2-21.6-28.7-21.6c-15.9,0-27.6,9.9-27.6,22.4c0,13.9,12.3,18.4,21.5,21.6
	c11,3.8,23,5.8,23,15.8c0,6.8-5.8,12.2-15.7,12.2c-11.2,0-17.9-7.4-19.5-15.8l-11.8,3.3c3.3,13.9,14.3,23.7,30.7,23.7
	c17.3,0,29-10,29-23.8c0-15-13.8-20.5-25-24.2 M212.7,236.2h-56.1v96.4h56.1c34.8,0,51.1-23.2,51.1-47.9c0-24.7-16.8-48.4-51.1-48.4
	"/>
<path class="st0" d="M793.8,92.7c-12.7,30.2-41.8,51.4-75.9,51.4c-34.1,0-63.1-21.2-75.9-51.4H0v491.6h842V92.7H793.8z M271,501.6
	l-62.9-111.3h-51.6v111.3H93.7V175.7h110.8c77.8,0,124.4,43.3,124.4,108.9c0,44.7-21.2,77.3-59.7,93.6l72.4,123.4H271z M621.4,501.6
	H394.8V175.7h223.9v60.5h-161v69.4h127.1v56.8H457.7v78.7h163.7V501.6L621.4,501.6z M748.1,501.6h-62.9V175.7h62.9V501.6z"/>
<path class="st0" d="M694.5,6.5l2.5-1.2l1.8-0.2l1.8,0.9l0.7,1.9l4.2,1.3l0.7-2.5l3.7-1.5l4.2-1.4l4.1-0.5l3.3-0.7l1.8-0.5l1.7-1.8
	c-2.1-0.2-4.4-0.4-6.6-0.4c-9.2,0-17.9,2.1-25.7,6l0.4,0.2h1.2L694.5,6.5z M732.5,96.5l-3.8-2.9l-1.9-4.2l-1.7-0.6l-2.2-2.1v-1.5
	l0.8-2.8l0.9-2.6l0.7-1.9l0.6-1.7v-3.8c0,0-0.7-0.8-1.2-1.2c-0.5-0.5-0.2-0.8-0.9-1.1c-0.7-0.1-1.1,0-1.1,0l-1.1,0.2l-0.8,1.1h-1.7
	c0,0-0.7-0.9-1.7-2c-0.8-1.1,0,0-1.5-1.1c-1.5-1.1-1.4-1.1-1.4-1.1l-0.9-1.7c0,0-0.2-0.4-2-0.7c-1.8-0.4-1.1-0.5-1.1-0.5h-0.7
	c0,0-2.7-1.9-3.5-2c-0.8-0.1-1.5,0-1.5,0l-0.5-0.2l-2.4-0.6c0,0-0.6-0.6-1.2-0.6c-0.7,0-1.9-1.9-1.9-1.9s-2-0.7-2.1-0.8l-0.5-1.7
	l-1.2-3.7c0,0-1.8-2.5-1.8-3.5c0-0.9-1.2-0.5-0.7-0.7c0.5-0.4-0.8-1.3-0.8-1.3l0.4,1.5c0,0-0.2,1.5,0.6,2.4c0.8,0.8,0,0.8,0,0.8
	h-0.9l-1.1-0.9c0,0-0.7-1.2-0.7-2.4v-2.2c0,0-0.6-0.9-0.8-1.3c-0.2-0.2-0.4-3.2-0.4-3.2l-0.6-1.3l-0.4-2.6l-0.7-2.5l-0.2-1.5
	l1.8-3.9l1.2-2.6l0.7-1.7l0.2-1.2l0.4-3.9v-1.9l0.8-1.4l0.2-0.8l0.4-1.8l-0.6-1.7h-0.7l-4.4-0.2l0.8-1.4l-1.4-2
	c-16.4,10.9-27.4,29.9-27.4,51.4c0,33.7,26.6,61.1,59.4,61.1c4.6,0,9.1-0.6,13.5-1.7l-0.2-1.1l1.7-3.8v-2l1.2-5.5l1.1-3.7l0.4-6.3
	l-1.1-0.9l-2.4-1.2V96.5z"/>
<path class="st0" d="M732.9,1.9l4.4,2.8l0.7,2.4l1.1,5.9l-5.5-1.9l-2-1.4l-4.6-4.2l-3.7-2l-2.6,1.1l-0.2,1.1l1.7,1.1l3,1.3l2.1,2.1
	l-3.2,0.4l-3.1-1.2l-2.4,2.5l-2.1,0.8l-2.5,1.9l-0.7,2.9l0.4,1.7l2.4,1.2l1.4,2.6l2.8,0.9l1.2-1.1l1.2-3.5l-0.6-5.7l1.5,0.5l3.7,1.3
	l1.8-0.4l0.4,0.2l5.9,3.3l1.9,2.4l-5.2,2.7h0.9c0,0,2.8,2.5,3.4,2.5c0.5,0-1.8,1.2-1.8,1.2s-1.1,1.5-2.1,1.4
	c-1.1-0.1-0.4,0.5-1.4,0.6c-1.2,0-3,2.2-3,2.2l-0.9,1.5l-1.7,2.1l-0.4,1.4v2l-2.8,0.5l-1.2,2.8l-2.2,1.3c0,0,2.4,3.9,2.7,5.3
	c0.4,1.4-0.5,1.7-0.5,1.7l-1.4-1.3l-3.2-2.8l-0.6-0.5c0,0-2.1-0.6-2.4-0.5c-0.1,0.1-2.1,0.4-2.1,0.4l-5.5,2l-1.2,1.4l-0.8,3.9
	l1.5,3.9l1.4,1.9l1.2,0.4l1.8-0.2c0,0,1.1-1.3,2.1-2c0.9-0.7,1.7-1.4,1.7-1.4h1.2c0.4,0,0.1,1.4,0.1,1.4s-0.7,1.3-0.6,2.4
	c0.1,0.9-1.7,2.4-1.7,2.4s1.4,0.4,2.6,0c1.1-0.5,4.4,0,4.4,0l-0.6,2l-0.8,3.7l2.4,1.5h6.6l0.9-0.4l2.4-2.2l2.7-0.2l2.4-0.6l1.3,1.7
	l1.7-1.2l3.7-0.4l0.9,0.2l5.7,2.9h0.8l2.7,1.3l2.6,0.9l0.9,1.8l0.6,2.2c0,0,1.4,0.4,2.1,0.6c0.7,0.2,2.6,0.4,2.6,0.4l0.9,0.7
	l1.5-0.5l2.1-0.4l1.9,1.4l2,0.5v4.4l-3.3,3.7l-0.8,7.1l-3.8,4.2l-2,1.5l-2,1.2l-2.6,4.2l-3.1,2.8l-1.1,1.7l-2.6,1.1h-0.4l-3,2
	l-1.3,1.8l-2.5,2.5l-1.5,1.3l-1.5,2c23.4-8.3,40.1-31,40.1-57.8c0-28.7-19.1-52.7-45-59.4"/>
</svg>
