<svg width="842" height="699" viewBox="0 0 842 699" fill="none" xmlns="http://www.w3.org/2000/svg">
<path d="M34.8178 650.858C24.7855 647.672 15.1074 645.194 15.1074 637.524C15.1074 631.153 21.0087 626.787 29.6246 626.787C38.2405 626.787 45.2041 631.861 47.0925 640.71L58.8952 637.406C56.0625 624.663 44.732 615.813 30.2147 615.813C14.2812 615.813 2.59658 625.725 2.59658 638.232C2.59658 652.156 14.8713 656.639 23.9594 659.825C34.9358 663.601 46.9745 665.607 46.9745 675.637C46.9745 682.48 41.1912 687.79 31.277 687.79C20.0645 687.79 13.337 680.356 11.9207 671.979L0 675.165C3.30474 689.088 14.1632 698.881 30.8049 698.881C47.4466 698.881 59.7213 688.852 59.7213 675.047C59.7213 660.061 45.9123 654.516 34.8178 650.858M157.919 641.89C155.913 644.722 153.552 648.026 153.434 648.026H153.316C153.316 648.026 150.838 644.722 148.831 641.89L131.127 617.347H117.318L147.297 659.353V697.348H159.454V659.353L189.432 617.347H175.505L157.919 641.89ZM286.568 650.858C276.536 647.672 266.858 645.194 266.858 637.524C266.858 631.153 272.759 626.787 281.375 626.787C289.991 626.787 296.954 631.861 298.843 640.71L310.645 637.406C307.813 624.663 296.482 615.813 281.965 615.813C266.031 615.813 254.347 625.725 254.347 638.232C254.347 652.156 266.622 656.639 275.71 659.825C286.686 663.601 298.725 665.607 298.725 675.637C298.725 682.48 292.941 687.79 283.027 687.79C271.815 687.79 265.087 680.356 263.671 671.979L251.868 675.283C255.173 689.206 266.031 698.999 282.673 698.999C299.315 698.999 311.59 688.97 311.59 675.165C311.59 660.179 297.781 654.634 286.686 650.976M376.622 629.265H401.644V697.348H413.8V629.265H439.058V617.347H376.622V629.265ZM523.801 661.241H556.494V650.032H523.801V629.265H564.874V617.347H511.526V697.348H565.582V685.43H523.801V661.241V661.241ZM687.622 648.026C681.248 658.999 680.186 661.713 680.068 661.713H679.95C679.95 661.713 678.77 658.999 672.278 648.026L654.574 617.465H643.008V697.466H655.164V666.905C655.164 652.392 654.574 638.704 654.692 638.704C654.81 638.704 659.531 647.2 661.42 650.858L676.527 677.76H682.901L698.008 650.858C700.014 647.2 704.735 638.704 704.853 638.704H704.971C704.971 638.704 704.381 652.392 704.381 666.905V697.466H716.42V617.465H704.853L687.149 648.026H687.622ZM816.86 650.858C806.828 647.672 797.032 645.194 797.032 637.524C797.032 631.153 802.933 626.787 811.549 626.787C820.165 626.787 827.247 631.861 829.017 640.71L840.82 637.406C837.987 624.663 826.657 615.813 812.139 615.813C796.206 615.813 784.521 625.725 784.521 638.232C784.521 652.156 796.796 656.639 806.002 659.825C816.978 663.601 829.017 665.607 829.017 675.637C829.017 682.48 823.234 687.79 813.32 687.79C802.107 687.79 795.38 680.356 793.845 671.979L782.043 675.283C785.347 689.206 796.324 698.999 812.73 698.999C830.079 698.999 841.764 688.97 841.764 675.165C841.764 660.179 827.955 654.634 816.742 650.976M212.684 236.225H156.621V332.626H212.684C247.501 332.626 263.789 309.381 263.789 284.72C263.789 260.06 247.029 236.343 212.684 236.343" fill="#CCD3DB"/>
<path d="M793.845 92.7432C781.098 122.95 752.064 144.189 717.954 144.189C683.845 144.189 654.81 122.95 642.063 92.7432H0V584.309H842V92.7432H793.845ZM270.989 501.595L208.08 390.326H156.503V501.595H93.7129V175.693H204.54C282.319 175.693 328.939 218.997 328.939 284.602C328.939 329.322 307.695 361.889 269.218 378.172L341.568 501.595H270.989ZM621.409 501.595H394.798V175.693H618.694V236.225H457.706V305.605H584.821V362.361H457.706V441.063H621.409V501.595V501.595ZM748.051 501.595H685.143V175.693H748.051V501.595Z" fill="#CCD3DB"/>
<path d="M694.468 6.4897L696.947 5.30976L698.717 5.07377L700.488 6.01773L701.196 7.90564L705.445 9.20358L706.153 6.72569L709.812 5.19176L714.061 3.77583L718.191 3.30385L721.496 2.59588L723.267 2.1239L724.919 0.353984C722.795 0.117995 720.552 0 718.31 0C709.103 0 700.37 2.1239 692.58 6.01773L692.934 6.25371H694.114L694.468 6.4897ZM732.473 96.5196L728.696 93.5697L726.807 89.3219L725.155 88.732L722.913 86.6081V85.0741L723.739 82.2423L724.683 79.6464L725.391 77.7585L725.981 76.1065V72.3307C725.981 72.3307 725.273 71.5047 724.801 71.1508C724.329 70.6788 724.565 70.3248 723.857 70.0888C723.149 69.9708 722.795 70.0888 722.795 70.0888L721.732 70.3248L720.906 71.3867H719.254C719.254 71.3867 718.546 70.4428 717.601 69.3808C716.775 68.3189 717.601 69.3808 716.067 68.3189C714.533 67.2569 714.651 67.2569 714.651 67.2569L713.707 65.605C713.707 65.605 713.47 65.251 711.7 64.897C709.93 64.5431 710.638 64.4251 710.638 64.4251H709.93C709.93 64.4251 707.215 62.5372 706.389 62.4192C705.563 62.3012 704.855 62.4192 704.855 62.4192L704.382 62.1832L702.022 61.5932C702.022 61.5932 701.432 61.0032 700.842 61.0032C700.133 61.0032 698.953 59.1153 698.953 59.1153C698.953 59.1153 696.947 58.4073 696.829 58.2893L696.357 56.6374L695.176 52.9796C695.176 52.9796 693.406 50.5017 693.406 49.4397C693.406 48.4958 692.226 48.9678 692.698 48.7318C693.17 48.3778 691.872 47.4338 691.872 47.4338L692.226 48.9678C692.226 48.9678 691.99 50.5017 692.816 51.3277C693.642 52.1536 692.816 52.1536 692.816 52.1536H691.872L690.809 51.2097C690.809 51.2097 690.101 50.0297 690.101 48.8498V46.6079C690.101 46.6079 689.511 45.6639 689.275 45.3099C689.039 45.0739 688.921 42.1241 688.921 42.1241L688.331 40.8261L687.977 38.2303L687.269 35.7524L687.033 34.2184L688.803 30.3246L689.983 27.7287L690.691 26.0768L690.927 24.8969L691.281 21.003V19.1151L692.108 17.6992L692.344 16.8732L692.698 15.1033L692.108 13.4514H691.4L687.033 13.2154L687.859 11.7995L686.442 9.79355C670.037 20.6491 659.06 39.6462 659.06 61.2392C659.06 94.9857 685.616 122.36 718.428 122.36C723.031 122.36 727.516 121.77 731.883 120.709L731.647 119.647L733.299 115.871V113.865L734.479 108.319L735.541 104.661L735.895 98.4075L734.833 97.4636L732.473 96.2836V96.5196Z" fill="#CCD3DB"/>
<path d="M732.942 1.88816L737.309 4.72003L738.017 7.07993L739.08 12.9797L733.532 11.0917L731.526 9.67581L726.923 5.428L723.264 3.42209L720.668 4.48405L720.432 5.546L722.084 6.60795L725.035 7.90589L727.159 10.0298L723.972 10.3838L720.904 9.20383L718.543 11.6817L716.419 12.5077L713.94 14.3956L713.232 17.3455L713.586 18.9974L715.946 20.1773L717.363 22.7732L720.195 23.7172L721.376 22.6552L722.556 19.1154L721.966 13.4516L723.5 13.9236L727.159 15.2216L728.929 14.8676L729.283 15.1036L735.185 18.4074L737.073 20.7673L731.88 23.4812H732.824C732.824 23.4812 735.657 25.9591 736.247 25.9591C736.719 25.9591 734.477 27.139 734.477 27.139C734.477 27.139 733.414 28.6729 732.352 28.5549C731.29 28.437 731.998 29.0269 730.936 29.1449C729.756 29.1449 727.985 31.3868 727.985 31.3868L727.041 32.9207L725.389 35.0447L725.035 36.4606V38.4665L722.202 38.9385L721.022 41.7703L718.779 43.0683C718.779 43.0683 721.14 46.9621 721.494 48.378C721.848 49.794 721.022 50.03 721.022 50.03L719.605 48.732L716.419 45.9002L715.828 45.4282C715.828 45.4282 713.704 44.8382 713.468 44.9562C713.35 45.0742 711.343 45.3102 711.343 45.3102L705.796 47.3161L704.616 48.732L703.79 52.6258L705.324 56.5197L706.74 58.4076L707.921 58.7616L709.691 58.5256C709.691 58.5256 710.753 57.2276 711.816 56.5197C712.76 55.8117 713.468 55.1037 713.468 55.1037H714.648C715.002 55.1037 714.766 56.5197 714.766 56.5197C714.766 56.5197 714.058 57.8176 714.176 58.8796C714.294 59.8235 712.524 61.2395 712.524 61.2395C712.524 61.2395 713.94 61.5934 715.12 61.2395C716.183 60.7675 719.487 61.2395 719.487 61.2395L718.897 63.2454L718.071 66.9032L720.432 68.4371H727.041L727.985 68.0831L730.346 65.8412L733.06 65.6053L735.421 65.0153L736.719 66.6672L738.372 65.4873L742.03 65.1333L742.975 65.3693L748.64 68.3191H749.466L752.181 69.6171L754.777 70.561L755.721 72.3309L756.312 74.5728C756.312 74.5728 757.728 74.9268 758.436 75.1628C759.144 75.3988 761.033 75.5168 761.033 75.5168L761.977 76.2248L763.511 75.7528L765.636 75.3988L767.524 76.8147L769.53 77.2867V81.6525L766.226 85.3104L765.4 92.39L761.623 96.6378L759.616 98.1718L757.61 99.3517L755.013 103.6L751.945 106.431L750.882 108.083L748.286 109.145H747.932L744.981 111.151L743.683 112.921L741.204 115.399L739.67 116.697L738.135 118.703C761.505 110.443 778.264 87.6702 778.264 60.8855C778.264 32.2128 759.144 8.14188 733.296 1.53418" fill="#CCD3DB"/>
</svg>
